# xmcd
#
# Track frame offsets:
#	150
#	16345
#	33735
#	50612
#	70733
#	88123
#	107731
#	126998
#	146606
#	162801
#	177460
#	192290
#	213604
#	230824
#
# Disc length: 3330 seconds
#
# Revision: 2
# Processed by: cddbd v1.5.1PL0 Copyright (c) Steve Scherf et al.
# Submitted via: EasyCDDAExtractor 8.2.3.1
#
DISCID=d10d000e
DTITLE=Young Buck - Straight Outta Ca$hville
DYEAR=2004
DGENRE=Rap
TTITLE0=I'm A Soldier (Featuring 50 Cent)
TTITLE1=Do It Like Me
TTITLE2=Let Me In
TTITLE3=Look At Me Now (Featuring Mr. Porter)
TTITLE4=Welcome To The South (Featurig Lil Flip and David Banner)
TTITLE5=Prices On My Head (Featuring Lloyd Banks and D-Tay)
TTITLE6=Bonafide Hustler (Featuring 50 Cent and Tony Yayo)
TTITLE7=Shorty Wanna Ride
TTITLE8=Bang Bang
TTITLE9=Thou Shall
TTITLE10=Black Gloves
TTITLE11=Stomp (Featuring T.I. and Ludacris)
TTITLE12=Taking Hits (Featuring D-Tay)
TTITLE13=Walk With Me (Featuring Stat Quo)
EXTD=titles by nedlwrek
EXTT0=
EXTT1=
EXTT2=
EXTT3=
EXTT4=
EXTT5=
EXTT6=
EXTT7=
EXTT8=
EXTT9=
EXTT10=
EXTT11=
EXTT12=
EXTT13=
PLAYORDER=
